<svg xmlns="http://www.w3.org/2000/svg" viewBox="0 0 23 23"><path d="M1 1h7v7h-7zM10 1h1v1h-1zM15 1h7v7h-7zM2 2v5h5v-5zM11 2h2v3h1v6h-1v-2h-1v-1h1v-2h-1v2h-1v-1h-1v1h1v2h1v1h1v1h-1v1h1v1h-1v2h-1v-2h-1v-1h1v-2h-3v-1h2v-1h-1v-6h1v3h1v-2h1v-1h-1zM16 2v5h5v-5zM3 3h3v3h-3zM17 3h3v3h-3zM1 9h1v1h1v1h-2zM3 9h5v1h-1v1h-1v1h-1v-1h-1v-1h-1zM15 9h5v2h1v1h-1v1h-2v2h-2v1h-1v-1h-1v1h1v1h-2v1h-2v-1h1v-1h1v-2h2v-1h1v1h1v-2h1v-1h1v-1h-1v1h-2v1h-2v-1h1zM21 10h1v1h-1zM3 11h1v1h-1zM7 11h1v1h-1zM1 12h2v1h3v1h-4v-1h-1zM9 12h1v1h-1zM21 12h1v1h-1zM7 13h2v1h-2zM20 13h1v1h-1zM9 14h1v1h-1zM19 14h1v1h-1zM21 14h1v1h-1zM1 15h7v7h-7zM18 15h1v1h1v1h-2v1h2v3h-3v1h-2v-1h1v-1h2v-1h-2v-1h1v-2h1zM20 15h1v1h-1zM2 16v5h5v-5zM9 16h1v2h1v1h5v1h-1v1h-1v-1h-1v2h-1v-1h-1v-1h-2zM3 17h3v3h-3zM15 17h1v1h-1zM20 17h2v1h-2zM9 21h2v1h-2zM20 21h1v1h-1z"/></svg>